<?xml version="1.0" standalone="no"?>
<!DOCTYPE svg PUBLIC "-//W3C//DTD SVG 20010904//EN"
 "http://www.w3.org/TR/2001/REC-SVG-20010904/DTD/svg10.dtd">
<svg version="1.0" xmlns="http://www.w3.org/2000/svg"
 width="378.000000pt" height="378.000000pt" viewBox="0 0 378.000000 378.000000"
 preserveAspectRatio="xMidYMid meet">
<metadata>
Created by potrace 1.11, written by Peter Selinger 2001-2013
</metadata>
<g transform="translate(0.000000,378.000000) scale(0.100000,-0.100000)"
fill="#000000" stroke="none">
<path d="M1414 3709 c-36 -18 -66 -28 -80 -25 -28 7 -105 -19 -133 -45 -12
-12 -28 -18 -36 -15 -8 3 -17 1 -20 -4 -4 -6 -14 -10 -23 -10 -30 0 -170 -64
-201 -93 -17 -15 -31 -35 -31 -45 0 -9 -16 -27 -35 -39 -19 -13 -37 -33 -40
-45 -4 -15 -22 -30 -51 -43 -64 -28 -124 -85 -124 -118 0 -30 -73 -106 -102
-107 -19 0 -38 -28 -31 -47 6 -17 -27 -70 -66 -107 -24 -23 -31 -38 -31 -67 0
-21 4 -41 10 -44 15 -9 12 -108 -5 -148 -10 -23 -14 -70 -14 -141 0 -58 -3
-111 -7 -118 -4 -6 -3 -8 3 -5 6 4 13 -2 16 -13 7 -25 4 -36 -6 -32 -5 1 -6
-2 -3 -7 4 -5 1 -15 -6 -23 -7 -7 -14 -18 -15 -23 -4 -22 -82 -163 -87 -158
-3 3 -3 -4 -1 -16 2 -12 -1 -24 -8 -27 -7 -2 -13 -18 -13 -35 -1 -32 -20 -53
-38 -42 -5 3 -6 1 -2 -6 4 -6 12 -9 17 -6 12 8 11 -2 -2 -27 -6 -11 -13 -32
-15 -46 -3 -15 -8 -29 -12 -32 -9 -6 -14 -36 -12 -73 0 -16 -3 -26 -8 -23 -5
3 -8 -14 -7 -37 0 -27 -5 -47 -15 -55 -8 -8 -10 -11 -3 -8 6 4 14 2 18 -4 3
-5 1 -10 -5 -10 -7 0 -8 -6 -1 -18 5 -10 6 -24 1 -32 -5 -8 -4 -22 1 -32 8
-14 6 -18 -8 -19 -16 0 -16 -1 1 -8 14 -5 16 -10 8 -15 -7 -4 -16 -5 -21 -1
-5 3 -12 1 -15 -3 -3 -5 7 -9 22 -8 20 1 29 7 33 26 7 25 7 25 8 -3 0 -15 -5
-30 -13 -33 -21 -8 -11 -129 14 -171 11 -19 17 -39 14 -45 -4 -6 -2 -8 4 -4 6
3 16 0 24 -7 7 -7 35 -14 62 -16 28 -1 57 -6 65 -11 11 -7 -1 -8 -35 -5 -40 4
-51 2 -51 -10 0 -8 9 -17 19 -21 10 -3 16 -10 12 -15 -3 -6 -12 -8 -20 -5 -7
3 -16 1 -19 -4 -3 -4 6 -7 20 -5 14 1 25 -1 25 -4 0 -16 -202 -81 -252 -81
-21 0 -38 -4 -38 -10 0 -9 22 -15 43 -11 5 1 24 -6 43 -15 26 -12 45 -14 81
-8 27 4 54 8 60 7 7 0 10 4 6 10 -4 6 0 8 10 4 10 -4 16 -2 14 5 -3 17 66 39
75 25 4 -6 5 -14 2 -18 -2 -4 5 -5 16 -2 11 3 22 9 25 13 3 5 -4 6 -15 3 -14
-4 -20 0 -20 12 0 12 6 16 20 12 11 -3 18 -2 15 3 -4 6 16 20 28 20 1 0 2 -22
2 -49 0 -27 2 -48 5 -46 3 2 14 -24 25 -58 26 -84 38 -109 88 -166 23 -27 54
-70 69 -96 22 -36 39 -51 80 -69 82 -35 92 -39 101 -38 11 3 8 -15 -5 -26 -7
-6 -48 -15 -91 -21 -43 -6 -87 -16 -98 -21 -11 -6 -25 -8 -32 -4 -6 4 -9 3 -4
-1 8 -10 -73 -61 -88 -56 -5 2 -19 4 -30 5 -33 4 -82 34 -103 63 -25 34 -41
24 -18 -11 22 -35 77 -76 128 -98 42 -18 43 -19 8 -13 -19 3 -55 19 -79 36
-24 16 -46 27 -50 24 -8 -9 53 -60 98 -81 48 -23 178 -30 237 -14 44 13 171
90 186 114 5 7 8 6 8 -4 -1 -8 -7 -24 -15 -34 -8 -11 -15 -29 -15 -41 0 -15
-16 -32 -52 -55 -146 -93 -269 -271 -312 -452 l-6 -28 1625 0 1625 0 0 150 c0
99 -4 150 -11 150 -5 0 -7 5 -3 12 4 6 3 8 -3 5 -6 -4 -44 8 -85 27 l-74 34
-18 78 c-17 81 -54 157 -80 167 -18 7 -123 -15 -200 -42 -68 -24 -69 -24 -61
-11 10 16 -11 11 -26 -6 -10 -12 -25 -15 -57 -11 -64 7 -97 44 -123 137 -25
92 -106 292 -122 302 -8 5 -5 12 11 23 38 27 54 71 55 155 l2 77 46 -24 c25
-13 66 -27 90 -31 33 -6 44 -12 43 -25 -1 -9 4 -17 11 -17 7 0 16 -6 19 -12 3
-7 3 -3 0 10 -5 19 -1 22 23 22 29 0 133 48 133 61 0 8 -40 6 -55 -3 -8 -5
-38 -4 -77 1 -14 2 -8 18 7 18 8 0 11 -5 8 -11 -4 -6 1 -5 10 3 22 17 21 21
-3 16 -11 -2 -22 0 -25 6 -6 9 -1 10 42 13 12 0 24 4 27 7 3 3 -4 5 -17 4 -28
-3 -48 5 -42 15 8 12 -21 6 -38 -9 -16 -12 -13 -41 4 -41 4 0 6 7 3 15 -4 8
-1 15 6 15 6 0 8 5 4 12 -4 7 -3 8 5 4 6 -4 8 -13 4 -19 -4 -7 -8 -16 -8 -22
0 -9 -9 -11 -34 -6 -12 2 -8 25 8 44 7 9 14 22 15 29 1 7 5 20 10 28 7 12 6
13 -5 3 -20 -20 -31 -15 -17 6 7 11 16 17 20 15 4 -3 8 -1 8 4 0 5 10 8 23 7
51 -6 161 51 193 100 23 35 11 42 -19 11 -29 -29 -59 -37 -37 -11 11 13 10 14
-4 9 -9 -3 -16 -10 -16 -15 0 -5 -3 -8 -7 -7 -5 1 -20 -2 -36 -6 -29 -9 -124
0 -143 12 -7 4 -13 45 -15 97 -2 50 -8 93 -13 96 -13 10 -12 85 3 164 15 86 7
168 -26 255 -13 36 -25 71 -25 78 -1 6 -5 12 -10 12 -4 0 -8 6 -8 13 0 6 12
-1 25 -16 14 -16 23 -33 20 -38 -4 -5 -1 -9 4 -9 6 0 11 4 11 9 0 13 92 -77
114 -111 16 -25 16 -27 -1 -38 -16 -10 -16 -10 4 -5 42 11 66 -126 38 -214
-14 -42 15 -13 37 36 17 40 19 57 12 137 -4 50 -7 94 -6 99 1 4 -2 7 -7 7 -17
0 -18 35 -2 55 15 18 15 19 0 7 -13 -10 -19 -9 -29 2 -6 9 -8 21 -4 27 4 7 3
9 -3 6 -6 -4 -23 12 -39 36 -16 23 -34 48 -41 54 -12 13 -6 56 7 48 4 -3 7 3
6 13 -1 11 5 16 16 14 9 -1 19 1 22 6 3 5 -6 8 -19 6 -14 -1 -25 1 -25 6 0 8
48 25 63 22 4 -1 7 2 7 8 0 5 7 7 16 3 8 -3 13 -12 9 -21 -4 -12 -3 -13 9 -3
11 9 20 10 36 1 12 -6 26 -9 33 -7 14 5 -51 47 -72 47 -11 0 -10 4 3 19 20 22
36 98 18 87 -7 -4 -12 -14 -12 -21 0 -19 -46 -49 -61 -39 -7 4 -9 3 -5 -4 4
-7 -12 -10 -51 -10 l-58 0 35 13 c42 16 61 18 40 5 -8 -5 -10 -10 -4 -10 6 0
18 8 25 17 8 10 9 14 2 10 -6 -4 -14 -3 -17 2 -4 6 -19 6 -39 0 -47 -13 -100
-11 -143 7 -22 9 -40 17 -41 18 -5 4 47 247 56 265 15 26 81 440 80 493 -1 24
-4 54 -9 68 l-7 25 -12 -30 c-37 -90 -113 -383 -141 -540 -36 -204 -42 -227
-57 -232 -17 -6 -48 53 -79 147 -32 98 -60 152 -119 230 -62 82 -85 124 -86
156 0 16 -4 38 -8 49 -5 11 -4 28 1 38 7 13 5 31 -6 58 -9 22 -16 49 -16 62 0
73 -42 137 -90 137 -19 0 -30 5 -30 14 0 15 -50 56 -73 60 -30 5 -64 21 -92
41 -67 49 -151 89 -190 91 -25 0 -55 11 -79 27 -38 26 -86 36 -86 18 0 -18
-58 7 -116 48 -56 40 -114 54 -129 32 -3 -6 -18 -6 -38 0 -17 5 -62 9 -98 9
-55 0 -77 -5 -125 -31z m1735 -1386 c-12 -15 -12 -16 3 -10 15 5 16 3 6 -18
-6 -14 -16 -25 -22 -25 -6 0 -6 4 2 12 9 9 9 15 0 26 -9 10 -8 16 3 23 21 13
23 11 8 -8z m-56 0 c-7 -2 -19 -2 -25 0 -7 3 -2 5 12 5 14 0 19 -2 13 -5z
m-2776 -225 c-3 -8 -6 -5 -6 6 -1 11 2 17 5 13 3 -3 4 -12 1 -19z m-9 -43 c-3
-33 -16 -33 -14 0 0 14 4 25 8 25 4 0 7 -11 6 -25z m-21 -65 c-28 -23 -37 -25
-37 -9 0 5 4 8 9 5 5 -3 14 1 21 9 7 8 17 15 23 15 5 0 -2 -9 -16 -20z m7 -80
c-6 -6 -15 -5 -24 1 -13 9 -12 10 3 5 9 -3 17 0 17 6 0 6 3 8 7 5 4 -4 2 -12
-3 -17z m38 -44 c-7 -16 -8 -27 -1 -31 5 -4 7 -11 3 -16 -4 -6 -11 -6 -19 1
-11 9 -13 5 -11 -22 4 -35 19 -39 46 -11 13 14 13 14 -7 4 -12 -6 -24 -7 -27
-3 -3 4 8 13 24 19 24 9 27 8 25 -6 -1 -9 2 -22 8 -29 7 -9 5 -11 -8 -6 -13 5
-16 4 -11 -4 4 -7 13 -12 19 -12 7 0 27 -38 45 -83 18 -45 38 -91 44 -101 8
-16 6 -23 -11 -37 -15 -12 -17 -19 -9 -23 10 -5 10 -7 1 -12 -7 -3 -13 -10
-13 -16 0 -6 6 -5 15 2 8 7 14 19 13 28 -2 8 3 17 11 20 10 3 12 0 8 -12 -4
-9 -3 -15 2 -12 5 3 14 -9 20 -27 11 -29 10 -34 -15 -55 -21 -19 -29 -21 -35
-10 -8 11 -13 5 -11 -12 0 -3 -8 -6 -18 -7 -20 -2 -23 16 -5 30 6 5 4 7 -5 4
-8 -2 -15 -10 -15 -18 -1 -18 -35 -13 -55 8 -8 9 -9 13 -2 9 6 -4 12 -3 12 3
0 5 -9 12 -19 16 -22 7 -55 70 -45 87 4 6 3 8 -4 4 -18 -11 -29 171 -12 192 2
1 3 8 4 15 1 6 7 11 14 10 14 -3 16 13 3 22 -11 6 4 68 18 73 6 2 7 10 4 19
-5 12 -3 14 7 8 10 -6 12 -3 7 15 -4 17 -3 20 5 12 9 -9 8 -18 0 -36z m-67
-34 c-3 -3 -11 0 -18 7 -9 10 -8 11 6 5 10 -3 15 -9 12 -12z m-35 -12 c0 -5
-4 -10 -10 -10 -5 0 -10 5 -10 10 0 6 5 10 10 10 6 0 10 -4 10 -10z m-3 -69
c0 -11 -5 -18 -9 -15 -4 3 -5 11 -1 19 7 21 12 19 10 -4z m-2 -40 c3 -5 2 -12
-3 -15 -5 -3 -9 1 -9 9 0 17 3 19 12 6z m2915 -336 c0 -18 -27 -38 -34 -26 -4
5 -1 11 6 14 7 2 5 3 -4 2 -10 -2 -18 1 -18 6 0 5 -7 9 -16 9 -12 0 -10 -6 9
-21 15 -11 26 -25 24 -31 -1 -6 4 -12 11 -13 7 -2 8 -1 2 2 -15 7 -2 23 15 17
8 -4 12 -10 9 -15 -7 -13 -45 -31 -43 -22 2 16 -14 53 -21 48 -4 -3 -15 6 -24
20 l-16 24 50 -1 c34 0 50 -4 50 -13z m-2770 -61 c0 -7 -8 -11 -17 -9 -10 2
-21 4 -25 4 -20 2 -5 17 17 17 14 0 25 -5 25 -12z m16 -19 c-23 -17 -50 -20
-41 -5 4 6 10 8 15 5 5 -3 11 -1 15 5 3 5 12 10 18 10 7 0 3 -7 -7 -15z m128
-47 c-5 -7 -10 -22 -11 -33 -2 -11 -8 -24 -14 -30 -7 -7 -7 -1 0 18 6 16 7 27
1 27 -5 0 -7 7 -4 15 4 8 10 12 15 9 5 -3 9 0 9 7 0 7 3 10 6 6 3 -3 2 -12 -2
-19z m2403 -85 c-6 -71 -12 -95 -29 -122 -36 -59 -35 20 3 117 13 34 26 62 27
62 2 0 2 -26 -1 -57z m-2332 -221 c-5 -6 -28 39 -47 93 -14 37 -17 64 -12 105
4 30 9 59 12 65 3 5 16 -51 28 -125 12 -74 20 -137 19 -138z m-317 237 c-10
-5 -42 -12 -70 -14 l-53 -5 60 14 c76 17 84 18 63 5z m462 -549 c-52 -39 -109
-61 -152 -58 l-43 3 45 24 c38 21 127 48 165 50 6 0 -1 -8 -15 -19z"/>
<path d="M290 1732 c-18 -19 -22 -59 -6 -59 14 0 16 37 1 37 -5 1 2 8 18 16
30 16 33 21 14 21 -7 0 -19 -7 -27 -15z"/>
<path d="M434 1550 c0 -13 4 -16 10 -10 7 7 7 13 0 20 -6 6 -10 3 -10 -10z"/>
<path d="M416 1445 c10 -8 23 -15 28 -15 6 0 1 7 -10 15 -10 8 -23 15 -28 15
-6 0 -1 -7 10 -15z"/>
<path d="M377 2424 c-11 -11 3 -24 18 -18 8 4 12 10 9 15 -6 11 -18 12 -27 3z"/>
<path d="M3171 2254 c0 -11 3 -14 6 -6 3 7 2 16 -1 19 -3 4 -6 -2 -5 -13z"/>
<path d="M3210 2220 c0 -5 5 -10 11 -10 5 0 7 5 4 10 -3 6 -8 10 -11 10 -2 0
-4 -4 -4 -10z"/>
<path d="M3085 2111 c-3 -5 0 -13 6 -17 7 -4 9 -3 5 4 -3 5 0 13 6 15 9 4 10
6 1 6 -6 1 -14 -3 -18 -8z"/>
<path d="M3125 2092 c-12 -8 -13 -28 -2 -36 4 -3 5 -3 2 0 -2 4 0 15 6 25 11
21 9 23 -6 11z"/>
<path d="M3290 2079 c0 -5 5 -7 10 -4 6 3 10 8 10 11 0 2 -4 4 -10 4 -5 0 -10
-5 -10 -11z"/>
<path d="M3152 2054 c10 -10 20 -16 22 -13 3 3 -5 11 -17 18 -21 13 -21 12 -5
-5z"/>
<path d="M163 1583 c9 -2 14 -9 11 -15 -4 -7 -2 -8 5 -4 15 10 4 26 -17 25
-15 -1 -15 -2 1 -6z"/>
<path d="M3120 1513 c0 -6 8 -17 18 -24 16 -13 16 -13 2 6 -8 11 -16 22 -17
24 -2 2 -3 0 -3 -6z"/>
<path d="M3235 1479 c-3 -4 2 -6 10 -5 21 3 28 13 10 13 -9 0 -18 -4 -20 -8z"/>
<path d="M280 1335 c-7 -9 -8 -15 -2 -15 5 0 12 7 16 15 3 8 4 15 2 15 -2 0
-9 -7 -16 -15z"/>
<path d="M3190 1332 c6 -13 14 -21 18 -18 3 4 -2 14 -12 24 -18 16 -18 16 -6
-6z"/>
<path d="M324 1163 c-15 -24 -15 -26 -1 -14 9 7 17 10 17 6 0 -4 7 -2 15 5 19
16 19 30 1 30 -7 0 -22 -12 -32 -27z m36 13 c0 -3 -4 -8 -10 -11 -5 -3 -10 -1
-10 4 0 6 5 11 10 11 6 0 10 -2 10 -4z"/>
</g>
</svg>
